<svg width="76" height="219" viewBox="0 0 76 219" fill="none" xmlns="http://www.w3.org/2000/svg">
<path d="M28.7309 218.938C28.7309 218.938 23.8705 218.938 25.7438 215.475C25.7438 215.475 28.0322 212.609 27.3234 210.26C27.1738 209.974 27.068 209.666 27.0095 209.349C27.0713 208.605 27.2923 207.883 27.6576 207.232C27.8827 206.581 27.9923 205.896 27.9816 205.207H33.1559C33.3412 206.858 33.365 208.523 33.2268 210.179C33.0242 211.991 34.1077 213.774 34.3203 215.556C34.457 216.336 34.3872 217.139 34.1178 217.885C33.6419 218.897 32.4572 218.796 31.5256 218.836C30.594 218.877 29.6625 218.938 28.7309 218.938Z" fill="#FCC188"/>
<path d="M45.6613 218.938C45.6613 218.938 50.5319 218.938 48.6991 215.475C48.6991 215.475 46.4107 212.609 47.1296 210.26C47.2714 209.971 47.3736 209.665 47.4334 209.349C47.3812 208.603 47.1595 207.879 46.7853 207.232C46.5636 206.581 46.4574 205.895 46.4714 205.207H41.2971C41.1058 206.858 41.0786 208.523 41.2161 210.179C41.4288 211.991 40.3352 213.774 40.1225 215.556C39.9838 216.337 40.0572 217.141 40.3352 217.885C40.8111 218.897 41.9958 218.796 42.9172 218.836C43.8387 218.877 44.7298 218.938 45.6613 218.938Z" fill="#FCC188"/>
<path d="M19.1722 112.931C17.8457 118.368 19.1337 135.298 19.1337 135.298C20.5604 145.084 23.3442 152.141 23.0301 160.714C22.2808 173.604 27.9817 205.268 27.9817 205.268H33.1559C33.48 201.876 33.5509 198.463 33.6319 195.061C33.7432 190.383 34.4217 185.523 34.442 180.845C34.4622 176.167 33.8445 171.822 33.8344 167.266C33.8344 158.922 34.1584 150.69 34.847 142.376C35.1406 141.09 36.0013 128.838 36.0013 128.838H39.3124C39.4036 130.499 39.5048 132.159 39.6162 133.83C39.7681 136.392 39.92 138.964 40.163 141.526C40.5073 145.151 40.4972 148.816 40.5883 152.452C40.6997 156.613 40.6389 160.765 40.5883 164.927C40.5377 169.088 39.9916 177.164 39.9916 181.417C39.9916 186.045 40.5883 186.96 40.7098 191.578C40.7706 195.355 40.8516 199.122 41.0743 202.888C41.125 203.678 41.1857 204.478 41.2566 205.268H46.4309C46.4309 205.268 52.5874 173.594 51.8381 160.714C51.528 152.193 53.4825 143.675 55.8053 135.471C55.8053 135.471 58.349 118.419 57.0124 112.981" fill="#3A5091"/>
<path d="M75.887 121.548C75.8222 120.112 75.5034 118.7 74.9453 117.376C74.7635 117.05 74.6045 116.711 74.4694 116.363C74.0173 115.467 73.6773 114.518 73.4568 113.538C73.3758 112.434 73.3555 111.31 73.3353 110.207C73.315 109.103 72.7075 105.387 72.7277 104.202C72.7783 99.929 70.8646 92.8004 70.3076 88.7197C70.3076 88.5374 70.257 88.3552 70.2266 88.1831C70.1679 87.501 70.0596 86.8242 69.9026 86.1579C69.7912 85.4086 69.6798 84.6593 69.5583 83.9099C69.0453 80.7912 68.4242 77.6927 67.6952 74.6145C66.9864 71.5767 66.0042 68.6706 65.346 65.6531L63.5132 59.122C63.0949 58.0254 62.5549 56.9793 61.9032 56.0032C60.0945 53.4336 57.4436 51.578 54.4101 50.758C50.6332 49.6948 47.3039 49.1424 45.5724 47.0261L44.813 46.0135C44.1708 45.0295 44.216 43.9113 43.8084 42.8093C43.6795 42.0228 43.6185 41.2266 43.6261 40.4297C41.8676 41.2864 39.9371 41.7316 37.981 41.7316C36.0248 41.7316 34.0944 41.2864 32.3358 40.4297C32.3402 41.2303 32.2759 42.0298 32.1434 42.8194C31.7401 43.9233 31.21 44.9767 30.5638 45.9584L29.8145 46.971C28.083 49.0873 25.3288 49.7049 21.5518 50.7681C18.5172 51.5857 15.8656 53.4419 14.0587 56.0133C13.4077 56.9914 12.8645 58.0371 12.4386 59.1321L10.616 65.6632C9.95778 68.7009 8.96545 71.6172 8.25664 74.6246C7.54783 77.632 6.92003 80.8013 6.40361 83.9201C6.2821 84.6694 6.17071 85.4187 6.0492 86.168C5.90028 86.8354 5.79542 87.5119 5.73531 88.1931C5.73531 88.3653 5.67455 88.5476 5.6543 88.7298C5.08725 92.7802 3.17347 99.9391 3.23423 104.212C3.23423 105.397 2.65706 109.022 2.62669 110.217C2.59631 111.412 2.62668 112.445 2.50517 113.548C2.30083 114.526 1.97779 115.474 1.54322 116.373C1.40383 116.72 1.24494 117.058 1.0673 117.386C0.504632 118.708 0.185612 120.122 0.12561 121.558C-0.0489343 122.604 -0.0145285 123.674 0.226859 124.707C0.64452 125.853 1.36972 126.862 2.32291 127.623C3.31584 128.391 4.4228 128.999 5.60367 129.426C5.97832 129.567 6.47449 129.618 6.68713 129.284C6.89978 128.95 6.48462 128.362 6.09984 128.028C5.32346 127.3 4.822 126.326 4.67997 125.271C4.53794 124.216 4.76403 123.144 5.32014 122.236C5.3809 122.145 5.46191 122.044 5.56317 122.034C5.66443 122.024 5.82644 122.206 5.86695 122.368C6.12009 123.38 5.86694 124.484 6.33273 125.406C6.39489 125.553 6.5057 125.674 6.64664 125.75C6.76941 125.793 6.90325 125.794 7.02642 125.752C7.14958 125.709 7.25484 125.627 7.32507 125.517C7.46249 125.294 7.54249 125.04 7.55796 124.778C7.85983 122.479 7.69101 120.144 7.06178 117.912C6.94454 117.545 6.85319 117.169 6.7884 116.789C6.75804 116.332 6.77842 115.873 6.84915 115.421C6.99397 113.92 7.23068 112.429 7.55796 110.956C8.11488 108.657 8.99583 106.45 9.71476 104.202C10.1201 103 10.4582 101.776 10.7273 100.537C11.0817 99.1493 11.3855 97.7519 11.7399 96.3546C12.1956 94.3294 12.7525 89.3475 13.2183 87.3628C13.7336 85.4685 14.4111 83.6222 15.2434 81.8443C15.9118 80.2849 16.6003 78.7256 17.2686 77.1662C17.7272 76.412 20.921 65.3625 21.1336 64.5059C21.3591 68.8952 20.3879 83.4972 21.1336 87.8286L19.1115 112.981C24.8752 115.874 31.2236 117.412 37.6721 117.477H38.3607C44.8095 117.414 51.1583 115.876 56.9213 112.981L54.9094 87.8286C55.6389 83.4895 54.7014 67.551 54.9094 63.1559C55.1176 64.014 58.2611 76.3938 58.7237 77.1459C59.4021 78.7053 60.0907 80.2647 60.7489 81.824C61.5812 83.602 62.2587 85.4483 62.774 87.3426C63.2499 89.3678 63.7866 94.3497 64.2423 96.3343C64.5663 97.7317 64.86 99.1291 65.2549 100.516C65.5287 101.755 65.8667 102.978 66.2674 104.182C66.9965 106.43 67.8774 108.637 68.4344 110.936C68.7567 112.409 68.9934 113.9 69.1432 115.401C69.2105 115.854 69.2275 116.312 69.1938 116.768C69.1372 117.15 69.0492 117.525 68.9305 117.892C68.3013 120.123 68.1325 122.459 68.4344 124.758C68.4463 125.019 68.5229 125.273 68.6571 125.497C68.7291 125.607 68.8362 125.69 68.9611 125.732C69.086 125.775 69.2214 125.774 69.3457 125.73C69.4839 125.654 69.5913 125.532 69.6495 125.385C70.1254 124.474 69.8621 123.36 70.1254 122.348C70.1254 122.186 70.2671 122.003 70.4292 122.013C70.5912 122.024 70.6013 122.125 70.662 122.216C71.2194 123.123 71.4472 124.194 71.307 125.249C71.1668 126.304 70.6673 127.278 69.8925 128.008C69.5077 128.342 69.0217 128.838 69.2951 129.263C69.5685 129.689 70.014 129.547 70.3785 129.405C71.5626 128.979 72.6729 128.371 73.6694 127.603C74.6226 126.842 75.3478 125.833 75.7655 124.687C76.0073 123.658 76.0486 122.592 75.887 121.548Z" fill="#FCC188"/>
<path d="M73.6187 107.432C73.4547 106.369 73.3466 105.297 73.2947 104.222C73.1206 100.691 72.6223 97.1825 71.8062 93.7421C71.4214 91.8587 71.067 90.0766 70.8746 88.6792L70.8037 88.2134C70.7882 87.7249 70.7203 87.2394 70.6012 86.7654C70.6012 86.5325 70.5101 86.3098 70.4696 86.087C70.3582 85.3377 70.2468 84.5883 70.1253 83.839C69.6089 80.7304 68.9811 77.5914 68.2621 74.5132C67.928 73.1158 67.5331 71.7083 67.1483 70.3514C66.7129 68.7819 66.2572 67.1618 65.8927 65.5215L64.0498 58.9397C63.6216 57.8094 63.0644 56.7322 62.3891 55.7297C60.5122 53.0618 57.7611 51.1346 54.6125 50.2821L53.8227 50.0593C51.9237 49.6293 50.0842 48.9696 48.3446 48.0949C48.2657 48.0455 48.1745 48.0193 48.0814 48.0193C47.9883 48.0193 47.897 48.0455 47.8181 48.0949C45.2664 49.7454 38.1885 53.0768 27.4348 48.4696C27.368 48.4394 27.2955 48.4238 27.2222 48.4238C27.1489 48.4238 27.0764 48.4394 27.0095 48.4696C25.4829 49.1253 23.9047 49.6536 22.2909 50.0492L21.4809 50.2719C18.3322 51.1245 15.5811 53.0517 13.7042 55.7196C13.0198 56.7379 12.4558 57.832 12.0233 58.9802L10.1906 65.5417C9.83617 67.1517 9.38049 68.7718 8.94508 70.3413C8.5603 71.6982 8.1654 73.0956 7.83125 74.5031C7.11232 77.5914 6.48451 80.7304 5.96809 83.8289C5.84658 84.5782 5.7352 85.3275 5.62382 86.0769C5.62382 86.2996 5.5428 86.5224 5.49218 86.7553C5.37708 87.2023 5.31256 87.6608 5.2998 88.1222L5.21879 88.6691C5.0264 90.0765 4.672 91.8587 4.28722 93.732C3.47107 97.1724 2.97281 100.681 2.79872 104.212C2.79872 104.779 2.65695 105.984 2.50506 107.169C2.49184 107.294 2.52467 107.419 2.59737 107.522C2.67006 107.624 2.77765 107.697 2.89997 107.726C4.62881 108.119 6.32221 108.654 7.96288 109.326C8.02797 109.356 8.09879 109.371 8.17046 109.371C8.24213 109.371 8.31295 109.356 8.37804 109.326C8.44331 109.299 8.50171 109.257 8.549 109.205C8.59629 109.152 8.63129 109.09 8.65144 109.022C8.91471 108.181 9.20836 107.341 9.49189 106.501C9.77541 105.66 9.98805 105.063 10.2311 104.334L10.3627 103.929C10.788 102.592 10.788 102.592 11.0209 101.65L11.2841 100.638C11.5474 99.6252 11.7803 98.5417 12.0233 97.4886L12.2562 96.476C12.479 95.4634 12.7119 93.8534 12.965 92.1118C13.2182 90.3702 13.4815 88.4969 13.7245 87.4944C14.2202 85.6185 14.8774 83.789 15.6889 82.0265L17.0559 78.8875L17.8129 76.5134C17.8724 76.3778 18.2376 74.6409 18.3129 74.5134C19.6992 69.5734 20.3129 67.5134 20.3129 68.5134L18.595 112.971C18.5939 113.065 18.6188 113.157 18.6671 113.238C18.7154 113.318 18.7851 113.384 18.8684 113.427C24.6884 116.341 31.0929 117.899 37.6012 117.983H38.4112C44.9195 117.899 51.3239 116.341 57.144 113.427C57.2273 113.384 57.297 113.318 57.3453 113.238C57.3935 113.157 57.4185 113.065 57.4174 112.971L55.3129 69.5134C55.9002 66.1719 57.3129 74.0134 58.0857 76.9535C58.1611 77.0809 58.2534 77.3778 58.3129 77.5134L58.9565 78.8875C59.4122 79.9001 59.8678 80.9735 60.3235 82.0367C61.1349 83.7852 61.7922 85.6013 62.2879 87.4641C62.5309 88.4767 62.7942 90.2993 63.0473 92.0815C63.3005 93.8636 63.5334 95.4635 63.7561 96.4457L63.9992 97.4583C64.2321 98.4708 64.4649 99.5543 64.7282 100.597L64.9915 101.61C65.1734 102.381 65.3965 103.141 65.6598 103.888L65.7813 104.283C66.0243 105.012 66.2775 105.741 66.5306 106.47C67.0369 107.949 67.5432 109.508 67.9584 111.098C67.9875 111.224 68.063 111.335 68.1699 111.408C68.2768 111.481 68.4073 111.511 68.5355 111.493C70.3087 111.228 72.0221 110.656 73.5984 109.802C73.6837 109.754 73.7532 109.683 73.7982 109.597C73.8432 109.51 73.8618 109.413 73.8516 109.316C73.7908 108.819 73.6997 108.131 73.6187 107.432Z" fill="#B078EF"/>
<path d="M47.6015 20.0833C47.6015 35.2314 43.3023 44.7691 37.999 44.7691C32.6957 44.7691 28.3965 34.1093 28.3965 20.0833C28.3965 10.1679 32.6957 7.74036 37.999 7.74036C43.3023 7.74036 47.6015 10.1679 47.6015 20.0833Z" fill="#DCA065"/>
<path d="M50.3428 18.5677C50.3428 33.7158 44.8167 43.2535 37.9999 43.2535C31.1831 43.2535 25.657 32.5937 25.657 18.5677C25.657 8.6523 31.1831 6.22473 37.9999 6.22473C44.8167 6.22473 50.3428 8.6523 50.3428 18.5677Z" fill="#FCC188"/>
<path d="M27.4306 20.8098C26.5795 36.171 32.9003 41.1104 32.9003 41.1104C33.2993 44.9501 30.1359 45.8267 27.0167 45.1507C21.7154 44.0018 18.506 39.0249 17.9331 33.3141C17.7739 31.3435 17.8017 26.1793 18.3511 24.2784C18.3511 22.2969 20.4375 17.9259 21.4807 15.9881C23.637 11.5445 24.1215 12.328 24.9766 9.54864C25.8337 7.00457 27.4222 4.76221 29.5481 3.09546C31.6739 1.4287 34.245 0.409729 36.9474 0.162988C41.3191 -0.292559 45.712 0.806721 49.3372 3.26339C50.2146 3.86431 50.9835 4.60681 51.6116 5.45984C56.2717 11.5761 57.8777 23.2694 58.9721 30.5516C59.4253 33.6097 59.2629 36.1188 57.6041 38.7883C56.1682 41.1764 54.8983 43.0867 52.2825 44.1047C50.7854 44.6479 48.833 45.0495 47.0781 44.7654C46.3151 44.7654 43.4409 42.7672 43.4409 40.9115C52.3031 32.1906 48.3025 13.2995 48.3025 13.2995C45.8143 8.0618 41.2483 9.7514 41.2483 9.7514C39.1899 10.6965 38.3024 15.7824 36.9474 16.9267C37.2121 14.5019 37.1702 12.217 36.563 12.8025C32.1613 17.0459 30.4147 25.2534 30.4147 25.2534C29.0381 24.1889 27.4306 20.8098 27.4306 20.8098Z" fill="#231F20"/>
<path d="M55.2305 36.6563C55.1295 36.5991 55.0248 36.5526 54.9202 36.5133C55.0248 36.474 55.1295 36.4275 55.2305 36.3703C55.9233 35.9735 56.3094 35.255 56.313 34.5151C55.6671 34.1469 54.8444 34.1183 54.148 34.5151C54.047 34.5723 53.9532 34.6402 53.8666 34.7081C53.8846 34.5973 53.8955 34.4829 53.8955 34.3685C53.8955 33.575 53.4589 32.8851 52.813 32.5133C52.1671 32.8851 51.7305 33.575 51.7305 34.3685C51.7305 34.4829 51.7413 34.5973 51.7594 34.7081C51.6728 34.6366 51.579 34.5687 51.4779 34.5115C50.7852 34.1147 49.9625 34.1433 49.313 34.5115C49.313 35.2515 49.6991 35.97 50.3955 36.3667C50.4965 36.4239 50.6011 36.4704 50.7058 36.5097C50.6011 36.5491 50.4965 36.5955 50.3955 36.6527C49.7027 37.0495 49.3166 37.768 49.313 38.5079C49.9589 38.8761 50.7815 38.9047 51.4779 38.5079C51.579 38.4507 51.6728 38.3828 51.7594 38.3149C51.7413 38.4293 51.7305 38.5437 51.7305 38.6581C51.7305 39.4516 52.1671 40.1415 52.813 40.5133C53.4589 40.1415 53.8955 39.4516 53.8955 38.6581C53.8955 38.5437 53.8846 38.4293 53.8666 38.3185C53.9532 38.39 54.047 38.4543 54.148 38.5115C54.8408 38.9083 55.6635 38.8797 56.313 38.5115C56.3094 37.7716 55.9233 37.0531 55.2305 36.6563V36.6563ZM52.813 37.9432C52.0156 37.9432 51.3697 37.3033 51.3697 36.5133C51.3697 35.7233 52.0156 35.0835 52.813 35.0835C53.6104 35.0835 54.2563 35.7233 54.2563 36.5133C54.2563 37.3033 53.6104 37.9432 52.813 37.9432Z" fill="white"/>
</svg>
