<svg width="82" height="235" viewBox="0 0 82 235" fill="none" xmlns="http://www.w3.org/2000/svg">
<g clip-path="url(#clip0_121_70)">
<path d="M23.4973 22.6981C23.0842 31.1813 17.8969 47.9536 20.9997 56.1196L38.9059 54.9986V40.9338L34.6479 22.6981L45.8252 17.0976L50.2162 34.5676L42.7647 45.0792L46.8897 53.5181L59.7023 61.1828C61.1991 57.9213 64.5783 48.792 61.5502 43.1064C58.2445 36.8997 59.034 22.9175 57.3019 14.9501C54.8163 3.51618 49.3479 -0.460812 39.9025 0.0362866C31.463 0.480443 24.141 9.48168 23.4973 22.6981Z" fill="#231F20"/>
<path d="M31.0106 234.605C31.0106 234.605 25.7811 234.605 27.7966 230.879C27.7966 230.879 30.2588 227.796 29.4962 225.268C29.3352 224.96 29.2214 224.629 29.1585 224.287C29.225 223.487 29.4628 222.711 29.8557 222.01C30.098 221.31 30.216 220.573 30.2044 219.832H35.7715C35.971 221.608 35.9965 223.4 35.8478 225.181C35.6299 227.131 36.7956 229.048 37.0244 230.966C37.1714 231.806 37.0963 232.67 36.8065 233.472C36.2945 234.561 35.0198 234.452 34.0175 234.496C33.0152 234.539 32.0129 234.605 31.0106 234.605Z" fill="#FCC188"/>
<path d="M49.2265 234.605C49.2265 234.605 54.4668 234.605 52.4949 230.879C52.4949 230.879 50.0327 227.796 50.8062 225.268C50.9588 224.957 51.0687 224.628 51.1331 224.287C51.0769 223.485 50.8384 222.707 50.4358 222.01C50.1973 221.309 50.083 220.572 50.098 219.832H44.5309C44.325 221.607 44.2958 223.399 44.4437 225.181C44.6725 227.131 43.4959 229.048 43.2671 230.966C43.1178 231.807 43.1968 232.672 43.4959 233.472C44.0079 234.561 45.2826 234.452 46.274 234.496C47.2654 234.539 48.2242 234.605 49.2265 234.605Z" fill="#FCC188"/>
<path d="M19.5201 119.844C18.0929 125.694 17.5927 134.96 19.2134 142.251C20.8342 149.542 23.7844 162.736 23.4464 171.96C22.6402 185.829 30.2044 219.897 30.2044 219.897H35.7716C36.1202 216.247 36.1965 212.576 36.2836 208.915C36.4035 203.882 37.6474 198.75 37.6692 193.717C37.691 188.684 36.5124 183.912 36.5015 179.009C36.5015 170.032 36.8501 161.175 37.591 152.23C37.9069 150.847 38.833 137.664 38.833 137.664H42.3955C42.4936 139.451 42.6025 141.238 42.7224 143.035C42.8858 145.792 43.0492 148.559 43.3107 151.315C43.6811 155.215 43.6702 159.159 43.7682 163.07C43.8881 167.548 43.8227 172.015 43.7682 176.493C43.7138 180.97 42.867 189.141 42.867 193.717C42.867 198.696 43.7683 200.199 43.899 205.167C43.9644 209.231 44.0515 213.284 44.2912 217.337C44.3457 218.186 44.411 219.047 44.4873 219.897H50.0545C50.0545 219.897 57.9215 185.818 57.1153 171.96C56.7817 162.792 59.4764 151.079 61.9756 142.251C64.4748 133.424 65.2025 125.197 63.7644 119.347" fill="#3A5091"/>
<path d="M81.7639 129.569C81.6942 128.025 81.3512 126.505 80.7507 125.081C80.5551 124.73 80.384 124.366 80.2386 123.991C79.7523 123.026 79.3864 122.005 79.1492 120.951C79.062 119.764 79.0402 118.555 79.0184 117.367C78.9966 116.18 78.343 112.181 78.3648 110.907C78.4192 106.309 76.3601 98.6392 75.7609 94.2487C75.7609 94.0526 75.7065 93.8565 75.6738 93.6713C75.6106 92.9375 75.4941 92.2093 75.3251 91.4924C75.2053 90.6862 75.0855 89.8799 74.9547 89.0737C74.4027 85.7182 73.7345 82.3844 72.9501 79.0724C72.1875 75.8041 71.1307 72.6773 70.4226 69.4307L68.4506 62.4037C68.0006 61.2239 67.4195 60.0983 66.7184 59.0481C64.7723 56.2834 61.9202 54.2868 58.6563 53.4047C54.5926 52.2607 51.6293 51.5962 49.7663 49.3192L48.9492 48.2297C48.2583 47.171 47.6882 46.0381 47.2496 44.8524C47.111 44.0061 47.0454 43.1496 47.0535 42.2921C45.1614 43.2138 43.0844 43.6928 40.9798 43.6928C38.8751 43.6928 36.7981 43.2138 34.906 42.2921C34.9107 43.1535 34.8415 44.0137 34.699 44.8633C34.2651 46.051 33.6947 47.1843 32.9994 48.2406L32.1932 49.33C30.3302 51.607 27.3669 52.2716 23.3032 53.4155C20.0382 54.2952 17.1852 56.2923 15.2412 59.059C14.5407 60.1113 13.9562 61.2364 13.498 62.4146L11.537 69.4416C10.8288 72.7099 9.76116 75.8476 8.99854 79.0834C8.23591 82.3191 7.56044 85.7291 7.00481 89.0846C6.87408 89.8908 6.75423 90.697 6.62349 91.5032C6.46326 92.2213 6.35044 92.9492 6.28576 93.6821C6.28576 93.8673 6.22039 94.0635 6.1986 94.2596C5.5885 98.6174 3.52942 106.32 3.59478 110.917C3.59478 112.192 2.9738 116.092 2.94111 117.378C2.90843 118.664 2.9411 119.775 2.81037 120.962C2.59052 122.014 2.24295 123.035 1.77538 124.002C1.62541 124.374 1.45445 124.738 1.26333 125.091C0.657935 126.514 0.314693 128.035 0.250135 129.58C0.0623377 130.706 0.0993559 131.857 0.359071 132.968C0.808444 134.201 1.5887 135.287 2.61427 136.106C3.68259 136.932 4.8736 137.587 6.14413 138.045C6.54723 138.198 7.08107 138.252 7.30986 137.893C7.53865 137.533 7.09197 136.901 6.67797 136.542C5.84265 135.758 5.30311 134.71 5.1503 133.575C4.99749 132.44 5.24074 131.287 5.83908 130.31C5.90445 130.212 5.99161 130.103 6.10056 130.092C6.2095 130.081 6.38382 130.277 6.4274 130.452C6.69976 131.541 6.42739 132.729 6.92854 133.72C6.99543 133.878 7.11465 134.009 7.26629 134.09C7.39839 134.137 7.54239 134.138 7.67491 134.092C7.80742 134.047 7.92067 133.958 7.99623 133.84C8.14408 133.599 8.23016 133.326 8.2468 133.044C8.5716 130.572 8.38996 128.058 7.71296 125.658C7.58681 125.262 7.48853 124.858 7.41881 124.449C7.38616 123.958 7.40808 123.464 7.48418 122.978C7.63999 121.362 7.89467 119.758 8.2468 118.173C8.84601 115.7 9.79385 113.325 10.5674 110.907C11.0035 109.613 11.3672 108.297 11.6568 106.963C12.0381 105.47 12.365 103.967 12.7463 102.463C13.2366 100.284 13.8358 94.9241 14.3369 92.7888C14.8913 90.7507 15.6203 88.7642 16.5158 86.8512C17.2349 85.1735 17.8237 82.992 18.5427 81.3142C19.537 78.8286 20.7997 72.7905 21.0284 71.8688C22.0226 76.343 21.7174 74.4231 22.5198 79.0834L24.4915 88.5249V98.9645L19.5203 119.844C25.7216 122.956 33.7093 125.119 40.6475 125.189H41.3883C48.3268 125.121 57.564 122.461 63.7645 119.347L58.2961 99.4616L57.799 88.0277L58.6563 80.32C59.4413 75.6514 59.3071 76.343 59.8042 72.8631C60.0283 73.7863 62.7997 80.9869 63.2975 81.7961C64.0274 83.4739 64.7682 85.1517 65.4764 86.8294C66.3719 88.7424 67.1009 90.7289 67.6553 92.767C68.1674 94.946 68.7448 100.306 69.235 102.441C69.5837 103.945 69.8996 105.448 70.3245 106.941C70.6192 108.274 70.9828 109.59 71.414 110.885C72.1984 113.303 73.1462 115.678 73.7454 118.152C74.0923 119.737 74.3469 121.341 74.508 122.956C74.5805 123.443 74.5988 123.936 74.5625 124.427C74.5017 124.837 74.4069 125.242 74.2793 125.636C73.6023 128.037 73.4206 130.55 73.7454 133.023C73.7583 133.304 73.8407 133.577 73.9851 133.818C74.0625 133.937 74.1777 134.026 74.3121 134.072C74.4465 134.117 74.5923 134.116 74.7259 134.069C74.8746 133.987 74.9902 133.856 75.0528 133.698C75.5648 132.718 75.2816 131.519 75.5648 130.43C75.5648 130.256 75.7174 130.059 75.8917 130.07C76.066 130.081 76.0769 130.19 76.1422 130.288C76.7419 131.264 76.987 132.416 76.8362 133.551C76.6853 134.686 76.1478 135.735 75.3143 136.52C74.9003 136.879 74.3773 137.413 74.6715 137.871C74.9656 138.328 75.445 138.176 75.8372 138.023C77.1112 137.565 78.3058 136.911 79.378 136.084C80.4035 135.265 81.1838 134.18 81.6331 132.946C81.8934 131.84 81.9378 130.693 81.7639 129.569Z" fill="#FCC188"/>
<path d="M50.1487 26.4351C50.1487 39.504 46.0064 47.7326 40.8965 47.7326C35.7866 47.7326 31.6443 38.536 31.6443 26.4351C31.6443 17.8807 35.7866 15.7864 40.8965 15.7864C46.0064 15.7864 50.1487 17.8807 50.1487 26.4351Z" fill="#DCA065"/>
<path d="M51.8333 24.3955C51.8333 37.8179 46.9367 46.2691 40.8965 46.2691C34.8563 46.2691 29.9597 36.8237 29.9597 24.3955C29.9597 15.6097 34.8563 13.4587 40.8965 13.4587C46.9367 13.4587 51.8333 15.6097 51.8333 24.3955Z" fill="#FCC188"/>
<path d="M29.8288 23.4012L26.9768 22.1228L27.3229 15.3985C27.4225 13.4633 27.9213 11.5697 28.7878 9.83658L28.9585 9.4953C29.9403 7.5317 31.4175 5.85832 33.2442 4.64055C35.3164 3.25905 37.7512 2.52185 40.2418 2.52185H41.7089C44.4117 2.52185 47.045 3.37817 49.2309 4.96789C50.6201 5.97818 51.7915 7.25796 52.6752 8.73087L53.0205 9.30638C53.8808 10.7401 54.5122 12.2992 54.8921 13.9274L56.8044 22.1228L49.6149 22.904L48.6642 19.3531L47.8596 22.904H43.8787L43.382 19.9213L42.4857 22.904H37.9905L37.1372 19.3531C36.9819 18.8801 37.2362 22.2649 37.1372 22.904C35.3943 23.0697 31.8015 23.3017 31.3737 22.904C30.9459 22.5063 30.9578 21.3653 31.0172 20.8445L29.8288 23.4012Z" fill="#221E1F"/>
<path fill-rule="evenodd" clip-rule="evenodd" d="M2.98999 116.263C4.70507 116.902 6.65929 117.167 8.45455 117.225C8.82213 115.901 9.27195 114.6 9.72143 113.3C9.99681 112.504 10.2721 111.707 10.5282 110.907C10.9643 109.613 11.328 108.297 11.6177 106.963C11.8127 106.199 11.9935 105.433 12.1746 104.665C12.3476 103.932 12.5209 103.198 12.7071 102.463C12.9464 101.4 13.2117 99.578 13.4788 97.7435C13.759 95.8198 14.0412 93.8818 14.2977 92.7887C14.8522 90.7506 15.5812 88.7642 16.4767 86.8512C16.8362 86.0123 17.1632 85.0475 17.4901 84.0827C17.8171 83.1179 18.144 82.1531 18.5036 81.3142C19.3177 79.2788 20.3119 74.8614 20.7709 72.8218C20.8724 72.3706 20.9478 72.0358 20.9892 71.8688C21.3175 73.3463 21.5042 74.1265 21.6357 74.6767C21.9027 75.7925 21.9432 75.962 22.4806 79.0833L24.4523 88.5248V98.9645L19.4811 119.844C25.6824 122.956 33.6702 125.119 40.6083 125.189H41.3491C48.2876 125.121 57.5248 122.461 63.7253 119.347L58.2569 99.4616L57.7598 88.0277L58.6172 80.3199C59.2288 76.6825 59.2824 76.2989 59.5114 74.6609C59.5763 74.1967 59.6553 73.6316 59.7651 72.8631C59.9891 73.7863 62.7605 80.9869 63.2583 81.7961C63.4407 82.2155 63.6239 82.6348 63.807 83.0542C64.3565 84.3126 64.9061 85.571 65.4372 86.8294C66.3327 88.7423 67.0617 90.7289 67.6161 92.767C67.8774 93.8785 68.1556 95.818 68.4306 97.7348C68.6946 99.5755 68.9557 101.395 69.1959 102.441C69.2749 102.782 69.3523 103.123 69.4297 103.464C69.6934 104.626 69.9568 105.787 70.2853 106.941C70.58 108.274 70.9436 109.59 71.3748 110.885C71.6244 111.654 71.8905 112.419 72.1566 113.185C72.727 114.825 73.2977 116.465 73.7062 118.152C73.8328 118.73 73.9471 119.311 74.049 119.894C75.8961 119.713 77.6241 119.287 79.0103 118.828C78.9972 118.346 78.9884 117.865 78.9796 117.387L78.9793 117.367C78.9693 116.826 78.8283 115.702 78.6797 114.518C78.5021 113.102 78.3137 111.601 78.3256 110.907C78.361 107.913 77.5007 103.618 76.7305 99.7732C76.3177 97.7123 75.9309 95.7808 75.7218 94.2487C75.7218 94.1044 75.6923 93.9601 75.6637 93.8202C75.6534 93.7699 75.6432 93.7202 75.6346 93.6713C75.5715 92.9375 75.4549 92.2092 75.286 91.4923L75.2856 91.4895C75.1659 90.6843 75.0461 89.879 74.9156 89.0737C74.3636 85.7182 73.6954 82.3844 72.9109 79.0724C72.5554 77.5486 72.1359 76.0555 71.7175 74.5667C71.2387 72.8623 70.7614 71.1636 70.3834 69.4307L68.4114 62.4036C67.9614 61.2238 67.3803 60.0982 66.6792 59.0481C64.7332 56.2833 61.881 54.2868 58.6172 53.4046C58.2801 53.3098 57.9506 53.2182 57.6286 53.1287C54.4177 52.2362 51.9599 51.553 50.2552 49.8947C42.0171 52.6845 35.2358 51.5187 31.5483 49.98C29.8469 51.5845 27.415 52.2605 24.2525 53.1395C23.9306 53.229 23.6011 53.3206 23.264 53.4155C19.999 54.2951 17.146 56.2923 15.202 59.059C14.5015 60.1113 13.917 61.2364 13.4588 62.4145L11.4978 69.4415C11.1128 71.2185 10.6215 72.9568 10.1308 74.6933C9.71887 76.1507 9.30736 77.6068 8.95936 79.0833C8.19673 82.319 7.52126 85.7291 6.96564 89.0846C6.90027 89.4877 6.83762 89.8908 6.77498 90.2939C6.71233 90.697 6.64969 91.1001 6.58432 91.5032C6.42408 92.2213 6.31127 92.9492 6.24659 93.6821C6.24659 93.7917 6.2237 93.9051 6.20049 94.0201C6.18448 94.0994 6.16832 94.1795 6.15943 94.2596C5.95127 95.7464 5.57446 97.6225 5.17089 99.6318C4.39159 103.512 3.51254 107.888 3.55561 110.917C3.55561 111.59 3.38262 112.994 3.21444 114.36C3.13128 115.035 3.0493 115.7 2.98999 116.263Z" fill="#B078EF"/>
</g>
<defs>
<clipPath id="clip0_121_70">
<rect width="82" height="234.6" fill="white"/>
</clipPath>
</defs>
</svg>
