<svg width="69" height="201" viewBox="0 0 69 201" fill="none" xmlns="http://www.w3.org/2000/svg">
<g clip-path="url(#clip0_121_90)">
<path d="M26.2034 201C26.2034 201 21.8527 201 23.5295 197.866C23.5295 197.866 25.578 195.273 24.9435 193.147C24.8096 192.888 24.7148 192.61 24.6625 192.322C24.7178 191.649 24.9157 190.996 25.2426 190.407C25.4441 189.818 25.5423 189.198 25.5326 188.575H30.1642C30.3302 190.069 30.3514 191.576 30.2277 193.074C30.0464 194.714 31.0162 196.327 31.2066 197.94C31.3289 198.646 31.2664 199.373 31.0253 200.047C30.5993 200.963 29.5388 200.872 28.705 200.909C27.8711 200.945 27.0372 201 26.2034 201Z" fill="#FCC188"/>
<path d="M41.3582 201C41.3582 201 45.7179 201 44.0773 197.866C44.0773 197.866 42.0289 195.273 42.6724 193.147C42.7994 192.886 42.8908 192.608 42.9443 192.322C42.8976 191.648 42.6992 190.993 42.3643 190.407C42.1658 189.818 42.0707 189.197 42.0833 188.575H37.4517C37.2804 190.068 37.2561 191.575 37.3792 193.074C37.5695 194.714 36.5906 196.327 36.4003 197.94C36.2761 198.647 36.3418 199.374 36.5906 200.047C37.0166 200.963 38.0771 200.872 38.9019 200.909C39.7267 200.945 40.5243 201 41.3582 201Z" fill="#FCC188"/>
<path d="M17.6471 105.069C16.4598 109.989 18.4448 125.311 18.4448 125.311C20.0309 133.384 21.3816 140.552 21.1004 148.311C20.4297 159.976 25.5326 188.629 25.5326 188.629H30.1643C30.4543 185.56 30.5177 182.472 30.5903 179.393C30.69 175.159 30.9347 170.843 30.9528 166.61C30.9709 162.376 30.7806 158.363 30.7715 154.239C30.7715 146.689 31.0616 139.239 31.6779 131.716C31.9408 130.552 32.7112 119.464 32.7112 119.464H35.6751C35.7566 120.967 35.8473 122.47 35.947 123.982C36.0829 126.3 36.2189 128.628 36.4364 130.946C36.7446 134.227 36.7355 137.544 36.8171 140.833C36.9168 144.599 36.8624 148.356 36.8171 152.123C36.7718 155.889 36.8171 163.458 36.8171 167.306C36.8171 171.494 36.8171 172.062 36.9259 176.241C36.9802 179.659 37.0528 183.067 37.2522 186.476C37.2975 187.191 37.3519 187.915 37.4153 188.629H42.0469C42.0469 188.629 47.5577 159.966 46.887 148.311C46.6094 140.599 47.5269 132.891 49.6061 125.466C49.6061 125.466 52.715 110.035 51.5186 105.114" fill="#3A5091"/>
<path d="M68.4134 112.867C68.3555 111.568 68.0701 110.289 67.5705 109.091C67.4078 108.796 67.2654 108.49 67.1445 108.175C66.7399 107.363 66.4355 106.505 66.2381 105.618C66.1656 104.62 66.1475 103.602 66.1294 102.604C66.1112 101.605 65.5674 98.2418 65.5855 97.1697C65.6308 93.3027 63.9178 86.8517 63.4193 83.1589C63.4193 82.9939 63.374 82.829 63.3468 82.6733C63.2942 82.056 63.1973 81.4435 63.0567 80.8406C62.957 80.1625 62.8573 79.4844 62.7486 78.8063C62.2893 75.984 61.7334 73.18 61.0808 70.3943C60.4464 67.6453 59.5672 65.0154 58.978 62.2847L57.3375 56.3744C56.963 55.382 56.4796 54.4353 55.8963 53.552C54.2773 51.2266 51.9044 49.5474 49.1891 48.8054C45.8083 47.8432 43.3429 47.2843 41.793 45.3691L41.1132 44.4528C40.5384 43.5623 40.0642 42.6095 39.6993 41.6121C39.584 40.9004 39.5294 40.1799 39.5361 39.4587C37.962 40.234 36.234 40.6369 34.4831 40.6369C32.7321 40.6369 31.0041 40.234 29.43 39.4587C29.4339 40.1832 29.3763 40.9068 29.2578 41.6213C28.8968 42.6203 28.4223 43.5735 27.8438 44.4619L27.1731 45.3783C25.6232 47.2934 23.1578 47.8524 19.777 48.8145C17.0607 49.5544 14.6872 51.2341 13.0698 53.5612C12.487 54.4463 12.0008 55.3926 11.6196 56.3835L9.98812 62.2939C9.39897 65.0429 8.51072 67.682 7.87625 70.4035C7.24178 73.125 6.67983 75.9931 6.21757 78.8154C6.10881 79.4935 6.0091 80.1716 5.90033 80.8497C5.76703 81.4537 5.67317 82.0659 5.61936 82.6824C5.61936 82.8381 5.56497 83.0031 5.54684 83.1681C5.03927 86.8334 3.32621 93.3119 3.38059 97.1788C3.38059 98.2509 2.86397 101.531 2.83677 102.613C2.80958 103.694 2.83677 104.629 2.728 105.627C2.5451 106.512 2.25593 107.371 1.86694 108.184C1.74217 108.497 1.59994 108.803 1.44094 109.1C0.937282 110.297 0.651722 111.576 0.598012 112.876C0.441775 113.822 0.472572 114.791 0.688642 115.725C1.0625 116.763 1.71163 117.676 2.56486 118.365C3.45365 119.06 4.4445 119.61 5.50152 119.996C5.83688 120.124 6.28102 120.17 6.47136 119.867C6.6617 119.565 6.29008 119.033 5.94565 118.731C5.25071 118.072 4.80184 117.191 4.67471 116.236C4.54758 115.281 4.74995 114.311 5.24774 113.49C5.30212 113.407 5.37464 113.316 5.46527 113.306C5.55591 113.297 5.70094 113.462 5.73719 113.609C5.96379 114.525 5.73718 115.524 6.15412 116.358C6.20976 116.491 6.30895 116.601 6.43511 116.669C6.54501 116.709 6.66481 116.709 6.77506 116.671C6.88531 116.633 6.97952 116.558 7.04238 116.459C7.16539 116.256 7.237 116.027 7.25085 115.79C7.52106 113.71 7.36995 111.596 6.80671 109.577C6.70177 109.244 6.62 108.904 6.562 108.56C6.53483 108.147 6.55307 107.732 6.61638 107.323C6.74601 105.964 6.95789 104.614 7.25085 103.282C7.74936 101.202 8.53791 99.2039 9.18144 97.1697C9.54429 96.0818 9.84688 94.9744 10.0878 93.8525C10.4051 92.5971 10.677 91.3326 10.9942 90.068C11.4021 88.2354 11.9006 83.727 12.3175 81.931C12.7788 80.2167 13.3853 78.5459 14.1303 76.937C14.7285 75.5258 14.8341 73.516 15.4323 72.1048C15.8428 71.4224 17.9643 61.0396 18.1546 60.2643C18.3565 64.2365 18.6072 78.0113 19.2747 81.931L17.5927 105.114C22.7519 107.732 28.4344 109.124 34.2066 109.183H34.823C40.5954 109.126 46.2784 107.734 51.4369 105.114L50.5449 82.1974C51.1979 78.2707 49.6628 63.4776 49.8489 59.5002C50.0353 60.2768 53.3375 71.4883 53.7516 72.1689C54.3589 73.5801 54.2739 75.5075 54.863 76.9186C55.6081 78.5276 56.2145 80.1984 56.6758 81.9127C57.1018 83.7454 57.5822 88.2537 57.99 90.0498C58.2801 91.3143 58.5429 92.5789 58.8964 93.8342C59.1416 94.9551 59.4441 96.0623 59.8028 97.1514C60.4554 99.1856 61.244 101.183 61.7425 103.263C62.031 104.597 62.2429 105.946 62.3769 107.304C62.4372 107.714 62.4524 108.129 62.4223 108.541C62.3716 108.886 62.2928 109.227 62.1866 109.559C61.6234 111.578 61.4723 113.691 61.7425 115.771C61.7532 116.008 61.8217 116.237 61.9419 116.44C62.0063 116.54 62.1021 116.615 62.2139 116.654C62.3257 116.692 62.447 116.691 62.5582 116.651C62.6819 116.582 62.7781 116.472 62.8301 116.339C63.2561 115.515 63.0205 114.507 63.2561 113.59C63.2561 113.444 63.383 113.279 63.528 113.288C63.6731 113.297 63.6821 113.389 63.7365 113.471C64.2354 114.292 64.4393 115.261 64.3138 116.216C64.1883 117.171 63.7412 118.052 63.0477 118.713C62.7032 119.015 62.2682 119.464 62.5129 119.849C62.7576 120.234 63.1564 120.106 63.4827 119.977C64.5426 119.592 65.5365 119.042 66.4285 118.346C67.2817 117.657 67.9308 116.744 68.3047 115.707C68.5212 114.776 68.5581 113.812 68.4134 112.867Z" fill="#FCC188"/>
<path d="M65.9333 97.1882C65.9798 98.1609 66.0766 99.1304 66.2234 100.093C66.2959 100.725 66.3775 101.348 66.4318 101.797C66.441 101.885 66.4244 101.974 66.3841 102.052C66.3438 102.13 66.2816 102.194 66.2053 102.237C64.7942 103.01 63.2606 103.528 61.6733 103.767C61.5586 103.784 61.4418 103.757 61.3461 103.691C61.2504 103.624 61.1828 103.524 61.1567 103.41C60.7851 101.971 60.3319 100.56 59.8787 99.2225C59.6521 98.5627 59.4255 97.9029 59.208 97.2431L59.0992 96.8857C58.8636 96.2098 58.6639 95.5215 58.501 94.824L58.2653 93.9077C58.0297 92.9638 57.8212 91.9834 57.6128 91.067L57.3952 90.1507C57.1958 89.2618 56.9874 87.814 56.7608 86.2013C56.5342 84.5885 56.2985 82.9391 56.081 82.0228C55.6373 80.337 55.0012 78.4904 54.2749 76.9081C53.8671 75.9459 53.8242 74.7897 53.4163 73.8734L51.2821 65.0795C51.2821 72.5938 51.4545 95.3312 51.7213 105.105C51.7223 105.19 51.6999 105.274 51.6567 105.347C51.6135 105.419 51.5511 105.479 51.4766 105.518C46.2669 108.155 40.5342 109.564 34.7085 109.641H33.9834C28.1578 109.564 22.425 108.155 17.2154 105.518C17.1408 105.479 17.0784 105.419 17.0352 105.347C16.992 105.274 16.9696 105.19 16.9706 105.105C17.3644 103.94 17.2154 77.9093 18.0293 64.7561C17.9618 64.8714 17.9013 64.9907 17.848 65.1134L15.5929 74.2614L14.3693 77.1021C13.643 78.697 13.0546 80.3526 12.6109 82.0502C12.3934 82.9574 12.1578 84.6526 11.9312 86.2287L11.9214 86.2969C11.6985 87.8468 11.4932 89.275 11.2967 90.1782L11.0882 91.0945C10.8707 92.0475 10.6622 93.028 10.4266 93.9443L10.1909 94.8607L10.1909 94.8609C9.98244 95.7129 9.98242 95.713 9.60176 96.9224L9.48393 97.2889C9.2664 97.9487 9.07606 98.4894 8.82228 99.2499C8.56849 100.01 8.30564 100.771 8.06998 101.532C8.05194 101.593 8.02061 101.649 7.97828 101.697C7.93595 101.745 7.88368 101.782 7.82525 101.806C7.76698 101.834 7.70359 101.848 7.63944 101.848C7.57529 101.848 7.5119 101.834 7.45363 101.806C5.98504 101.198 4.46924 100.714 2.92173 100.359C2.81223 100.333 2.71593 100.267 2.65086 100.174C2.58579 100.081 2.55641 99.9678 2.56824 99.8547C2.7042 98.7826 2.8311 97.6921 2.8311 97.179C2.98693 93.983 3.43293 90.8083 4.16348 87.6949C4.5079 85.9997 4.82513 84.3869 4.99735 83.1132L5.06986 82.6184C5.08128 82.2008 5.13904 81.7859 5.24206 81.3813C5.28738 81.1706 5.35989 80.969 5.35989 80.7674L5.36017 80.7655C5.45978 80.0881 5.55939 79.4106 5.66806 78.7331C6.13031 75.9291 6.69228 73.0885 7.33581 70.2937C7.63492 69.02 7.9884 67.7554 8.33282 66.5275C8.72257 65.1072 9.13045 63.641 9.44768 62.1841L11.0882 56.2462C11.4753 55.2072 11.9802 54.217 12.5928 53.2956C14.2729 50.8812 16.7354 49.1372 19.5538 48.3657L20.2789 48.1641C21.7234 47.8061 23.1361 47.328 24.5027 46.7346C24.5625 46.7073 24.6274 46.6932 24.693 46.6932C24.7586 46.6932 24.8235 46.7073 24.8833 46.7346C34.5091 50.904 40.8447 47.8892 43.1288 46.3956C43.1994 46.3509 43.2811 46.3271 43.3645 46.3271C43.4478 46.3271 43.5295 46.3509 43.6001 46.3956C45.1572 47.1871 46.8038 47.7841 48.5036 48.1733L49.2106 48.3749C52.029 49.1464 54.4916 50.8904 56.1716 53.3047C56.776 54.212 57.2748 55.1867 57.6581 56.2096L59.3077 62.1658C59.634 63.6502 60.0419 65.1163 60.4316 66.5367C60.776 67.7645 61.1295 69.0383 61.4286 70.3028C62.0721 73.0885 62.6341 75.9291 63.0964 78.7423C63.2051 79.4204 63.3048 80.0985 63.4045 80.7766C63.4408 80.9782 63.5224 81.1797 63.5224 81.3905C63.629 81.8195 63.6897 82.2588 63.7036 82.7009L63.7671 83.1224C63.9393 84.3869 64.2565 85.9997 64.601 87.7041C65.3315 90.8175 65.7775 93.9922 65.9333 97.1882Z" fill="#B078EF"/>
<path d="M38.5118 41.9091C39.8515 40.86 41.9796 38.2093 42.696 36.3733C43.5982 34.4784 44.288 32.4186 44.7438 30.2588C45.0958 28.0598 44.248 26.9406 44.2728 24.6924C44.3035 22.7698 44.2488 20.8464 44.109 18.9323C43.9929 17.3242 43.8154 15.7252 43.5902 14.1443C43.4195 12.9451 43.2216 11.7549 42.9759 10.5738C42.9106 10.1575 42.8169 9.74998 42.696 9.35635C42.5604 9.03268 42.4003 8.72826 42.2182 8.44782C41.9539 7.99798 41.6617 7.57856 41.3445 7.19404C40.9333 6.70229 40.4741 6.28668 39.9793 5.95845C39.5944 5.69929 39.186 5.50692 38.7643 5.38607C38.4549 5.29386 38.1394 5.24212 37.8224 5.2316C37.6702 5.21349 37.5172 5.21349 37.365 5.2316C36.9418 5.28612 36.5118 5.3497 36.0954 5.44964C35.8025 5.52404 35.513 5.62113 35.2285 5.74038L34.7644 5.9221L34.464 6.04021L34.1705 5.9221L33.7064 5.74038C33.4219 5.62113 33.1324 5.52404 32.8395 5.44964C32.4163 5.3497 31.9931 5.28612 31.5699 5.2316C31.4177 5.21368 31.2647 5.21368 31.1125 5.2316C30.7955 5.24135 30.4799 5.2931 30.1706 5.38607C29.747 5.50835 29.3365 5.70064 28.9488 5.95845C28.4537 6.28601 27.9944 6.70167 27.5836 7.19404C27.2647 7.5762 26.9722 7.99583 26.7099 8.44782C26.5254 8.72784 26.363 9.03227 26.2252 9.35635C26.1096 9.75167 26.0183 10.1588 25.9522 10.5738C25.7065 11.7549 25.5085 12.9451 25.3379 14.1443C25.1058 15.7252 24.9329 17.3212 24.8191 18.9323C24.6724 20.8457 24.6177 22.7697 24.6553 24.6924C24.6766 26.9409 24.8664 28.5195 25.2218 30.7178C25.555 32.4037 26.0652 34.0186 26.7372 35.5149C27.3546 37.1984 28.1782 38.7336 29.174 40.0575C30.4709 41.4538 32.0479 42.9726 33.7083 43.1842C35.3688 43.3959 37.0393 42.9524 38.5118 41.9091Z" fill="#DCA065"/>
<path d="M39.6703 40.8012C41.3808 39.7837 44.098 37.2131 45.0127 35.4325C46.1646 33.5948 47.0454 31.5972 47.6273 29.5027C48.0767 27.37 46.9943 26.2846 47.0259 24.1043C47.0652 22.2398 46.9954 20.3744 46.8168 18.5182C46.6686 16.9586 46.442 15.4079 46.1544 13.8748C45.9365 12.7117 45.6838 11.5575 45.37 10.4121C45.2867 10.0083 45.1671 9.61313 45.0127 9.23139C44.8395 8.91749 44.6351 8.62226 44.4026 8.35029C44.0652 7.91403 43.6921 7.50728 43.2871 7.13437C42.762 6.65747 42.1757 6.25441 41.544 5.93609C41.0525 5.68476 40.5312 5.4982 39.9927 5.38099C39.5976 5.29157 39.1948 5.24139 38.79 5.23119C38.5958 5.21363 38.4004 5.21363 38.2061 5.23119C37.6658 5.28406 37.1167 5.34573 36.5851 5.44265C36.211 5.5148 35.8414 5.60895 35.4782 5.72461L34.8856 5.90084L34.5021 6.01538L34.1274 5.90084L33.5347 5.72461C33.1715 5.60895 32.8019 5.5148 32.4279 5.44265C31.8875 5.34573 31.3472 5.28406 30.8068 5.23119C30.6126 5.21381 30.4172 5.21381 30.2229 5.23119C29.8181 5.24064 29.4152 5.29083 29.0202 5.38099C28.4794 5.49958 27.9553 5.68606 27.4602 5.93609C26.8281 6.25376 26.2417 6.65687 25.7171 7.13437C25.3099 7.50499 24.9366 7.91195 24.6016 8.35029C24.3661 8.62185 24.1588 8.91709 23.9828 9.23139C23.8352 9.61477 23.7186 10.0096 23.6342 10.4121C23.3204 11.5575 23.0677 12.7117 22.8498 13.8748C22.5535 15.4079 22.3327 16.9557 22.1875 18.5182C22.0002 20.3738 21.9303 22.2397 21.9783 24.1043C22.0055 26.2849 22.2479 27.8158 22.7017 29.9478C23.1271 31.5828 23.7784 33.1489 24.6364 34.6C25.4248 36.2327 26.4763 37.7215 27.7478 39.0055C29.4037 40.3596 31.4171 41.8325 33.5372 42.0378C35.6573 42.243 37.7903 41.813 39.6703 40.8012Z" fill="#FCC188"/>
<path d="M29.4715 40.3208C29.4715 40.3208 23.0234 36.4636 24.1589 20.5586C24.1589 20.5586 25.7286 23.9071 27.0729 24.9618C27.0729 24.9618 26.0459 15.0086 37.6517 9.60095C37.6517 9.60095 42.1103 7.92673 44.54 13.1168C44.54 13.1168 49.9912 33.7346 39.6025 40.8577C40.2238 41.0137 41.4569 41.0972 42.2019 41.0972C43.759 41.1208 44.915 40.9195 46.3769 40.3813C48.9311 39.3725 51.0783 37.5408 52.4803 35.1745C54.1001 32.5292 54.2588 30.043 53.8162 27.0127C52.7475 19.7969 52.3217 11.4091 47.7712 5.34845C47.1579 4.50319 46.4071 3.76745 45.5503 3.172C42.0104 0.737689 37.7208 -0.351585 33.4519 0.0998153C30.8131 0.34431 28.3024 1.35401 26.2266 3.00559C24.1508 4.65717 22.5996 6.87912 21.7626 9.40003C20.9277 12.1541 19.6586 14.6654 19.0658 17.4948C18.8398 18.8127 18.5132 20.1113 18.0889 21.379C17.6213 22.6263 17.0535 23.8401 16.7029 25.1292C16.1664 27.0128 15.9713 28.9777 16.1267 30.9303C16.6862 36.5892 21.4527 39.2565 26.6294 40.3949C27.8085 40.6032 28.7422 40.5442 29.4715 40.3208Z" fill="#231F20"/>
<path d="M45.9519 7.29175C45.8753 7.24747 45.7959 7.2115 45.7165 7.18106C45.7959 7.15062 45.8753 7.11464 45.9519 7.07037C46.4775 6.7632 46.7703 6.20698 46.7731 5.63415C46.2831 5.34912 45.659 5.32698 45.1308 5.63415C45.0541 5.67843 44.9829 5.731 44.9172 5.78358C44.9309 5.6978 44.9391 5.60924 44.9391 5.52069C44.9391 4.90635 44.6079 4.37227 44.118 4.08447C43.628 4.37227 43.2968 4.90635 43.2968 5.52069C43.2968 5.60924 43.305 5.6978 43.3187 5.78358C43.253 5.72824 43.1819 5.67566 43.1052 5.63138C42.5797 5.32421 41.9556 5.34635 41.4629 5.63138C41.4629 6.20421 41.7558 6.76043 42.2841 7.0676C42.3607 7.11188 42.4401 7.14785 42.5195 7.17829C42.4401 7.20873 42.3607 7.2447 42.2841 7.28898C41.7585 7.59615 41.4656 8.15237 41.4629 8.7252C41.9529 9.01023 42.5769 9.03237 43.1052 8.7252C43.1819 8.68092 43.253 8.62834 43.3187 8.57577C43.305 8.66432 43.2968 8.75287 43.2968 8.84142C43.2968 9.45576 43.628 9.98985 44.118 10.2776C44.6079 9.98985 44.9391 9.45576 44.9391 8.84142C44.9391 8.75287 44.9309 8.66432 44.9172 8.57853C44.9829 8.63388 45.0541 8.68369 45.1308 8.72797C45.6563 9.03513 46.2804 9.013 46.7731 8.72797C46.7703 8.15514 46.4775 7.59892 45.9519 7.29175V7.29175ZM44.118 8.28797C43.5131 8.28797 43.0231 7.79263 43.0231 7.18106C43.0231 6.56949 43.5131 6.07415 44.118 6.07415C44.7229 6.07415 45.2129 6.56949 45.2129 7.18106C45.2129 7.79263 44.7229 8.28797 44.118 8.28797Z" fill="white"/>
</g>
<defs>
<clipPath id="clip0_121_90">
<rect width="69" height="201" fill="white"/>
</clipPath>
</defs>
</svg>
