<svg width="57" height="169" viewBox="0 0 57 169" fill="none" xmlns="http://www.w3.org/2000/svg">
<g clip-path="url(#clip0_121_100)">
<path d="M21.535 169.052C21.535 169.052 17.8826 169.052 19.2903 166.45C19.2903 166.45 21.01 164.296 20.4773 162.531C20.3649 162.316 20.2854 162.085 20.2414 161.846C20.2879 161.287 20.454 160.745 20.7284 160.256C20.8976 159.767 20.98 159.252 20.9719 158.734H24.8601C24.9994 159.975 25.0173 161.226 24.9134 162.47C24.7612 163.832 25.5754 165.171 25.7352 166.511C25.8378 167.097 25.7854 167.701 25.583 168.261C25.2254 169.022 24.3351 168.945 23.6351 168.976C22.935 169.006 22.235 169.052 21.535 169.052Z" fill="#FCC188"/>
<path d="M34.2574 169.052C34.2574 169.052 37.9174 169.052 36.5401 166.45C36.5401 166.45 34.8205 164.296 35.3607 162.531C35.4673 162.314 35.5441 162.084 35.589 161.846C35.5498 161.286 35.3832 160.742 35.102 160.256C34.9354 159.766 34.8556 159.251 34.8661 158.734H30.9779C30.8341 159.974 30.8138 161.226 30.9171 162.47C31.0769 163.832 30.2551 165.171 30.0953 166.511C29.991 167.098 30.0462 167.702 30.2551 168.261C30.6127 169.022 31.503 168.945 32.1954 168.976C32.8878 169.006 33.5574 169.052 34.2574 169.052Z" fill="#FCC188"/>
<path d="M14.3522 89.3931C13.3555 93.4791 15.0218 106.201 15.0218 106.201C16.3534 112.906 17.4873 118.857 17.2513 125.3C16.6882 134.986 20.9721 158.78 20.9721 158.78H24.8603C25.1038 156.231 25.1571 153.667 25.2179 151.11C25.3016 147.595 25.5071 144.011 25.5223 140.495C25.5375 136.98 25.3777 133.647 25.3701 130.223C25.3701 123.953 25.6136 117.767 26.131 111.52C26.3517 110.554 26.9984 101.347 26.9984 101.347H29.4866C29.5551 102.595 29.6312 103.843 29.7149 105.098C29.829 107.023 29.9431 108.956 30.1257 110.881C30.3845 113.605 30.3768 116.359 30.4453 119.091C30.529 122.218 30.4834 125.338 30.4453 128.465C30.4073 131.593 30.4453 137.878 30.4453 141.074C30.4453 144.551 30.4453 145.023 30.5366 148.492C30.5823 151.331 30.6432 154.161 30.8106 156.992C30.8486 157.585 30.8943 158.186 30.9475 158.78H34.8357C34.8357 158.78 39.462 134.979 38.8989 125.3C38.6659 118.897 39.4362 112.496 41.1817 106.331C41.1817 106.331 43.7916 93.5172 42.7872 89.4311" fill="#3A5091"/>
<path d="M56.9703 95.8682C56.9216 94.7896 56.682 93.7282 56.2626 92.7333C56.126 92.4882 56.0066 92.234 55.905 91.9724C55.5654 91.2986 55.3098 90.5857 55.1441 89.8495C55.0832 89.0201 55.068 88.1756 55.0528 87.3462C55.0376 86.5168 54.581 83.7242 54.5963 82.834C54.6343 79.623 53.1962 74.2662 52.7777 71.1998C52.7777 71.0628 52.7397 70.9259 52.7168 70.7965C52.6727 70.284 52.5914 69.7754 52.4733 69.2747C52.3896 68.7117 52.3059 68.1486 52.2146 67.5855C51.8291 65.2419 51.3624 62.9136 50.8146 60.6004C50.2819 58.3177 49.5439 56.134 49.0493 53.8665L47.672 48.9586C47.3577 48.1346 46.9519 47.3485 46.4622 46.615C45.1031 44.6841 43.111 43.2897 40.8315 42.6736C37.9934 41.8746 35.9237 41.4105 34.6226 39.8202L34.0519 39.0593C33.5693 38.3198 33.1712 37.5286 32.8649 36.7005C32.7681 36.1095 32.7222 35.5112 32.7279 34.9124C31.4065 35.5561 29.9558 35.8907 28.4859 35.8907C27.016 35.8907 25.5653 35.5561 24.2439 34.9124C24.2472 35.514 24.1988 36.1148 24.0993 36.7081C23.7962 37.5376 23.3979 38.3292 22.9123 39.0669L22.3492 39.8278C21.0481 41.4181 18.9784 41.8822 16.1402 42.6812C13.8599 43.2955 11.8673 44.6903 10.5096 46.6227C10.0203 47.3576 9.61214 48.1434 9.29212 48.9662L7.92251 53.874C7.42792 56.1567 6.68223 58.3482 6.1496 60.608C5.61697 62.8679 5.14521 65.2495 4.75715 67.5931C4.66584 68.1562 4.58214 68.7192 4.49083 69.2823C4.37892 69.7839 4.30012 70.2922 4.25495 70.8041C4.25495 70.9335 4.2093 71.0704 4.19408 71.2074C3.76797 74.251 2.32987 79.6306 2.37552 82.8416C2.37552 83.7318 1.94181 86.4559 1.91899 87.3537C1.89616 88.2516 1.91898 89.0278 1.82767 89.8571C1.67412 90.5916 1.43137 91.3045 1.10482 91.98C1.00007 92.2402 0.880671 92.4943 0.74719 92.7409C0.324372 93.7347 0.0846451 94.7968 0.0395564 95.8759C-0.0916045 96.6619 -0.0657503 97.4662 0.11564 98.2423C0.42949 99.1035 0.974437 99.8617 1.69071 100.434C2.43685 101.011 3.26867 101.468 4.15603 101.788C4.43756 101.895 4.81041 101.933 4.9702 101.682C5.12999 101.43 4.81802 100.989 4.52888 100.738C3.94547 100.191 3.56865 99.4589 3.46192 98.666C3.3552 97.8732 3.52509 97.0678 3.94298 96.3856C3.98863 96.3172 4.04951 96.2411 4.1256 96.2335C4.20169 96.2259 4.32344 96.3628 4.35387 96.4846C4.5441 97.2455 4.35387 98.0749 4.70388 98.7673C4.75059 98.878 4.83386 98.9693 4.93977 99.026C5.03203 99.0586 5.1326 99.0591 5.22516 99.0273C5.31771 98.9955 5.3968 98.9334 5.44957 98.851C5.55284 98.6831 5.61296 98.4923 5.62458 98.2955C5.85142 96.5684 5.72456 94.8132 5.25173 93.1366C5.16363 92.8602 5.09499 92.578 5.0463 92.292C5.02349 91.949 5.0388 91.6045 5.09195 91.2648C5.20077 90.1364 5.37864 89.0158 5.62458 87.9092C6.04307 86.182 6.70506 84.5232 7.2453 82.834C7.54991 81.9307 7.80394 81.0111 8.00621 80.0795C8.27252 79.0371 8.50079 77.987 8.76711 76.937C9.10952 75.4152 9.52801 71.6715 9.87802 70.1802C10.2652 68.7567 10.7744 67.3693 11.3998 66.0333C11.902 64.8615 12.4194 63.6897 12.9216 62.5179C13.2662 61.9512 13.5228 61.3355 13.6825 60.6917C13.852 63.9901 14.2179 67.2754 14.7782 70.5302L14.3065 89.431C18.6376 91.6047 23.4081 92.7603 28.2538 92.8094H28.7712C33.6172 92.7619 38.388 91.6063 42.7186 89.431L42.2544 70.5302C42.8026 67.2696 43.1558 63.9792 43.3121 60.6765C43.4686 61.3213 43.7253 61.9375 44.073 62.5027C44.5828 63.6745 45.1002 64.8463 45.5948 66.018C46.2202 67.3541 46.7294 68.7415 47.1166 70.165C47.4742 71.6868 47.8775 75.4304 48.2199 76.9218C48.4634 77.9718 48.6841 79.0219 48.9808 80.0643C49.1866 80.995 49.4406 81.9144 49.7417 82.8188C50.2896 84.508 50.9515 86.1667 51.37 87.894C51.6123 89.0013 51.7901 90.1217 51.9027 91.2496C51.9533 91.5895 51.966 91.934 51.9407 92.2768C51.8982 92.5633 51.832 92.8458 51.7429 93.1214C51.27 94.798 51.1432 96.5532 51.37 98.2803C51.379 98.4765 51.4366 98.6673 51.5374 98.8358C51.5915 98.9188 51.672 98.9812 51.7658 99.013C51.8597 99.0447 51.9615 99.0439 52.0549 99.0108C52.1587 98.9537 52.2394 98.8622 52.2831 98.7521C52.6407 98.0673 52.4429 97.2303 52.6407 96.4694C52.6407 96.3476 52.7473 96.2107 52.869 96.2183C52.9908 96.2259 52.9984 96.302 53.044 96.3705C53.4628 97.0518 53.634 97.8567 53.5287 98.6495C53.4233 99.4422 53.0479 100.174 52.4657 100.723C52.1766 100.974 51.8114 101.347 52.0168 101.666C52.2223 101.986 52.557 101.879 52.831 101.773C53.7207 101.453 54.5551 100.996 55.3039 100.418C56.0202 99.8465 56.5651 99.0883 56.879 98.2271C57.0607 97.454 57.0917 96.6531 56.9703 95.8682Z" fill="#FCC188"/>
<path d="M55.2658 85.2613C55.1426 84.4621 55.0613 83.657 55.0223 82.8492C54.8915 80.1954 54.517 77.5592 53.9038 74.9739C53.6146 73.5586 53.3483 72.2195 53.2037 71.1694L53.1505 70.8194C53.1388 70.4523 53.0878 70.0875 52.9983 69.7313C52.9983 69.5563 52.9298 69.3889 52.8994 69.2215C52.8157 68.6584 52.732 68.0953 52.6407 67.5323C52.2526 65.1963 51.7808 62.8375 51.2406 60.5244C50.9895 59.4743 50.6928 58.4167 50.4036 57.397C50.0764 56.2176 49.734 55.0002 49.4601 53.7676L48.0752 48.8217C47.7535 47.9723 47.3348 47.1629 46.8274 46.4096C45.417 44.4048 43.3496 42.9566 40.9836 42.316L40.3901 42.1486C38.9632 41.8254 37.5808 41.3297 36.2737 40.6724C36.2143 40.6353 36.1458 40.6156 36.0758 40.6156C36.0059 40.6156 35.9373 40.6353 35.878 40.6724C33.9605 41.9127 28.6418 44.4161 20.561 40.954C20.5108 40.9313 20.4563 40.9195 20.4012 40.9195C20.3461 40.9195 20.2916 40.9313 20.2414 40.954C19.0942 41.4467 17.9083 41.8437 16.6956 42.141L16.0869 42.3084C13.7209 42.949 11.6536 44.3972 10.2432 46.402C9.72889 47.1672 9.30504 47.9894 8.98008 48.8521L7.60285 53.7828C7.33654 54.9926 6.99412 56.21 6.66693 57.3894C6.37779 58.409 6.08104 59.4591 5.82995 60.5168C5.28971 62.8375 4.81794 65.1963 4.42988 67.5247C4.33857 68.0877 4.25487 68.6508 4.17117 69.2139C4.17117 69.3813 4.1103 69.5487 4.07225 69.7237C3.98577 70.0596 3.93728 70.4041 3.92769 70.7509L3.86682 71.1618C3.72225 72.2194 3.45593 73.5586 3.16679 74.9663C2.5535 77.5516 2.17908 80.1878 2.04826 82.8416C2.04826 83.2677 1.94173 84.1732 1.82759 85.0635C1.81766 85.1574 1.84232 85.2517 1.89695 85.3288C1.95158 85.4058 2.03243 85.4603 2.12434 85.482C3.42348 85.7772 4.69598 86.1793 5.92886 86.6842C5.97777 86.7067 6.03099 86.7184 6.08484 86.7184C6.1387 86.7184 6.19191 86.7067 6.24083 86.6842C6.28988 86.6638 6.33376 86.6327 6.3693 86.5932C6.40484 86.5538 6.43114 86.5068 6.44628 86.4559C6.64411 85.8244 6.86477 85.1928 7.07783 84.5613C7.29088 83.9297 7.45067 83.4808 7.63328 82.9329L7.7322 82.6286C8.05178 81.6242 8.05178 81.6242 8.22679 80.9166L8.42462 80.1557C8.62245 79.3948 8.79747 78.5806 8.98008 77.7892L9.15509 77.0283C9.32249 76.2674 9.49749 75.0576 9.68772 73.7488C9.87794 72.4401 10.0758 71.0324 10.2584 70.2791C10.6309 68.8694 11.1248 67.4947 11.7345 66.1703L12.7618 63.8114L13.264 62.6549C13.3087 62.553 13.3595 62.4539 13.4161 62.3581C13.5759 64.5419 13.9412 68.0497 14.3825 70.5606L13.9183 89.4235C13.9175 89.494 13.9363 89.5633 13.9725 89.6238C14.0088 89.6842 14.0612 89.7334 14.1238 89.7659C18.4972 91.9556 23.3099 93.1262 28.2005 93.1899H28.8092C33.6998 93.1262 38.5124 91.9556 42.8859 89.7659C42.9485 89.7334 43.0009 89.6842 43.0371 89.6238C43.0734 89.5633 43.0922 89.494 43.0913 89.4235L42.6272 70.5606C43.0685 68.0497 43.4337 64.5419 43.5935 62.3581C43.6502 62.4539 43.701 62.553 43.7457 62.6549L44.2479 63.8114C44.5903 64.5723 44.9327 65.3789 45.2751 66.1779C45.8849 67.4918 46.3788 68.8565 46.7513 70.2563C46.9339 71.0172 47.1317 72.3868 47.322 73.726C47.5122 75.0652 47.6872 76.2674 47.8546 77.0055L48.0372 77.7664C48.2122 78.5273 48.3872 79.3415 48.585 80.1252L48.7829 80.8861C48.9196 81.4653 49.0873 82.0368 49.2851 82.5981L49.3764 82.8949C49.559 83.4427 49.7492 83.9906 49.9395 84.5385C50.3199 85.6494 50.7004 86.8211 51.0123 88.0158C51.0342 88.1106 51.091 88.1938 51.1713 88.2487C51.2516 88.3037 51.3497 88.3265 51.446 88.3125C52.7785 88.1136 54.066 87.6836 55.2506 87.0418C55.3146 87.0064 55.3668 86.9528 55.4007 86.8879C55.4345 86.8229 55.4485 86.7494 55.4408 86.6766C55.3951 86.3038 55.3267 85.7863 55.2658 85.2613Z" fill="#B078EF"/>
<path d="M31.1286 37.1447C32.0694 36.34 33.3692 34.6874 33.8723 33.2791C34.5058 31.8258 34.9902 30.246 35.3103 28.5895C35.5575 26.9029 34.9621 26.0446 34.9795 24.3203C35.0011 22.8457 34.9627 21.3705 34.8645 19.9025C34.783 18.6691 34.6584 17.4427 34.5002 16.2302C34.3804 15.3104 34.2413 14.3976 34.0688 13.4917C34.023 13.1724 33.9572 12.8599 33.8723 12.558C33.777 12.3098 33.6646 12.0763 33.5367 11.8612C33.3511 11.5162 33.1459 11.1945 32.9232 10.8996C32.6344 10.5224 32.3119 10.2037 31.9645 9.95192C31.6942 9.75315 31.4074 9.60561 31.1113 9.51292C30.894 9.4422 30.6724 9.40252 30.4498 9.39445C30.343 9.38056 30.2355 9.38056 30.1286 9.39445C29.8315 9.43626 29.5295 9.48503 29.2371 9.56168C29.0313 9.61875 28.8281 9.6932 28.6283 9.78467L28.3024 9.92404L28.0915 10.0146L27.8853 9.92404L27.5594 9.78467C27.3596 9.6932 27.1564 9.61875 26.9506 9.56168C26.6534 9.48503 26.3563 9.43626 26.0591 9.39445C25.9522 9.38071 25.8448 9.38071 25.7379 9.39445C25.5153 9.40193 25.2937 9.44162 25.0764 9.51292C24.779 9.60671 24.4907 9.75419 24.2184 9.95192C23.8708 10.2031 23.5483 10.522 23.2597 10.8996C23.0358 11.1927 22.8304 11.5145 22.6462 11.8612C22.5167 12.076 22.4026 12.3094 22.3059 12.558C22.2247 12.8612 22.1606 13.1735 22.1141 13.4917C21.9416 14.3976 21.8026 15.3104 21.6827 16.2302C21.5197 17.4427 21.3983 18.6668 21.3184 19.9025C21.2154 21.37 21.177 22.8456 21.2034 24.3203C21.2184 26.0448 21.3516 27.2555 21.6012 28.9416C21.8352 30.2346 22.1934 31.4732 22.6654 32.6208C23.099 33.912 23.5113 35.2678 24.2107 36.2832C25.1214 37.3541 26.3947 38.3406 27.5608 38.5029C28.7268 38.6653 30.0946 37.9449 31.1286 37.1447Z" fill="#DCA065"/>
<path d="M32.2503 35.7087C33.6307 34.904 35.5378 33.2513 36.276 31.8431C37.2056 30.3898 37.9163 28.81 38.386 27.1535C38.7486 25.4669 37.8751 24.6085 37.9007 22.8842C37.9324 21.4096 37.876 19.9345 37.7319 18.4664C37.6123 17.2331 37.4294 16.0067 37.1973 14.7942C37.0215 13.8744 36.8175 12.9616 36.5643 12.0557C36.4971 11.7364 36.4006 11.4239 36.276 11.122C36.1362 10.8737 35.9712 10.6402 35.7837 10.4252C35.5114 10.0801 35.2102 9.75846 34.8834 9.46355C34.4597 9.08639 33.9865 8.76763 33.4768 8.51588C33.0801 8.31712 32.6594 8.16958 32.2248 8.07689C31.906 8.00617 31.5809 7.96648 31.2543 7.95842C31.0975 7.94452 30.9398 7.94452 30.783 7.95842C30.347 8.00023 29.9039 8.049 29.4749 8.12565C29.173 8.18271 28.8748 8.25717 28.5816 8.34863L28.1034 8.48801L27.7939 8.5786L27.4915 8.48801L27.0132 8.34863C26.7201 8.25717 26.4219 8.18271 26.12 8.12565C25.684 8.049 25.2479 8.00023 24.8118 7.95842C24.6551 7.94467 24.4974 7.94467 24.3406 7.95842C24.0139 7.96589 23.6888 8.00558 23.37 8.07689C22.9336 8.17067 22.5106 8.31815 22.1111 8.51588C21.601 8.76711 21.1278 9.08592 20.7044 9.46355C20.3758 9.75665 20.0745 10.0785 19.8042 10.4252C19.6142 10.6399 19.0136 10.8734 18.8716 11.122C18.7525 11.4252 18.6584 11.7374 18.5903 12.0557C18.3371 12.9616 18.1331 13.8744 17.9573 14.7942C17.7181 16.0067 17.54 17.2307 17.4228 18.4664C17.2716 19.934 17.2152 21.4096 17.254 22.8842C17.2759 24.6088 17.9047 25.8195 18.2709 27.5055C18.6143 28.7985 19.1399 30.0371 19.8323 31.1847C20.4686 32.476 21.0736 33.8318 22.0997 34.8472C23.436 35.9181 25.3044 36.9046 27.0153 37.0669C28.7262 37.2292 30.7331 36.5088 32.2503 35.7087Z" fill="#FCC188"/>
<path d="M9.01556 23.8401C9.43515 30.8253 14.1384 37.6103 23.5837 35.8623C19.9596 33.1214 17.4599 28.2365 17.4599 20.878C17.4599 17.4627 17.9933 12.7231 18.8494 12.9734L19.4487 11.4828L20.2786 12.9734H21.7404L22.6765 10.3727L23.2468 12.9734H28.3951L29.5367 8.92172L30.5799 12.9734C31.1365 12.9734 32.3554 12.9987 33.4263 13.0563C34.0178 13.0882 34.4674 13.0799 35.1172 13.4154C37.4005 14.594 36.6351 17.8417 37.244 22.4827C37.0913 28.7745 35.7907 31.8206 32.1414 35.0919C38.8769 38.2758 48.2299 30.5907 46.9776 22.7709C46.0473 16.9613 43.729 14.8535 42.7909 10.8408C40.4535 0.842361 35.1938 1.0926 31.906 0.467368C22.2672 -1.36561 15.3919 1.90484 13.8817 6.33486C11.6186 12.9734 8.49108 15.1086 9.01556 23.8401Z" fill="#231F20"/>
</g>
<defs>
<clipPath id="clip0_121_100">
<rect width="57" height="169" fill="white"/>
</clipPath>
</defs>
</svg>
